# xmcd
#
# Track frame offsets:
#	150
#	14674
#	29596
#	43121
#	58111
#	72439
#	88953
#	103687
#	120342
#	133886
#	148340
#	162172
#	176395
#	191748
#	207450
#	222065
#	238215
#	253094
#	269542
#	283379
#
# Disc length: 3943 seconds
#
# Revision: 0
# Processed by: cddbd v1.5.2PL0 Copyright (c) Steve Scherf et al.
# Submitted via: MusicWizard 7.0.2
#
DISCID=4b0f6514
DTITLE=Seer - Wild´s Wasser
DYEAR=1900
DGENRE=Volkstümliche Schlager
TTITLE0=Wild´s Wasser
TTITLE1=Sumaregen
TTITLE2=Bauernmadl
TTITLE3=Seerisch
TTITLE4=Sumajodler
TTITLE5=Lo Da Do Daweil
TTITLE6=Auf Und Der Gams Nach
TTITLE7=Voglfonga
TTITLE8=A Wetta Is Immer Und Überall
TTITLE9=Riesenrindviech
TTITLE10=Fischerl Im Grund
TTITLE11=Fix Auf Da Alm
TTITLE12=Koana Dohoam
TTITLE13=Ewig and 3 Tog
TTITLE14=Kirtog
TTITLE15=Über N See
TTITLE16=Vollmond
TTITLE17=Koana 10 Rössa
TTITLE18=Koa Ruah
TTITLE19=He, Schäfer
EXTD=
EXTT0=
EXTT1=
EXTT2=
EXTT3=
EXTT4=
EXTT5=
EXTT6=
EXTT7=
EXTT8=
EXTT9=
EXTT10=
EXTT11=
EXTT12=
EXTT13=
EXTT14=
EXTT15=
EXTT16=
EXTT17=
EXTT18=
EXTT19=
PLAYORDER=
